<svg width="38" height="46" viewBox="0 0 38 46" fill="none" xmlns="http://www.w3.org/2000/svg">
<path d="M9.12633 4.18182H2.11111V0H11.9848L16.207 10.4545H38V14.6364H33.5287L31.7828 44.0325C31.751 44.5646 31.5152 45.0647 31.1236 45.4304C30.732 45.7961 30.2141 45.9999 29.6759 46H8.32411C7.78587 45.9999 7.268 45.7961 6.87638 45.4304C6.48477 45.0647 6.24898 44.5646 6.21722 44.0325L4.47133 14.6364H0V10.4545H11.6597L9.12633 4.18182ZM8.69989 14.6364L9.07567 20.9614C14.7166 21.1914 17.4547 22.2264 19.76 23.1401C21.9788 24.0183 23.8133 24.7835 28.6837 25.0219L29.3001 14.6364H8.69989Z" fill="#04622D"/>
</svg>
