<svg width="51" height="48" viewBox="0 0 51 48" fill="none" xmlns="http://www.w3.org/2000/svg">
<path d="M3.21426 16.6488V16.6155C3.21421 13.3333 4.19206 10.1246 6.02444 7.39423C7.85682 4.66385 10.4616 2.53414 13.5102 1.27379C16.5589 0.0134449 19.9147 -0.321074 23.1543 0.312439C26.394 0.945953 29.3723 2.51912 31.7135 4.83345C33.5556 3.92962 35.6132 3.54961 37.659 3.73539C39.7047 3.92118 41.6589 4.66553 43.3058 5.88621C44.9527 7.10689 46.228 8.75639 46.9909 10.6524C47.7539 12.5485 47.9747 14.6173 47.629 16.6303C48.1373 16.6772 48.6303 16.8277 49.0774 17.0725C49.5245 17.3172 49.9161 17.651 50.2277 18.0529C50.5393 18.4548 50.7642 18.9162 50.8884 19.4084C51.0126 19.9005 51.0334 20.4129 50.9495 20.9134C49.2707 30.9527 45.1182 37.3071 38.4994 39.9803V42.4616C38.4994 43.9305 37.9125 45.3392 36.8676 46.3778C35.8228 47.4165 34.4057 48 32.9281 48H18.0712C16.5936 48 15.1765 47.4165 14.1316 46.3778C13.0868 45.3392 12.4998 43.9305 12.4998 42.4616V39.9803C5.88108 37.3071 1.72857 30.9527 0.049736 20.9134C-0.0312872 20.4261 -0.01317 19.9277 0.103015 19.4476C0.2192 18.9675 0.431092 18.5154 0.726151 18.1181C1.02121 17.7208 1.39344 17.3864 1.82081 17.1346C2.24819 16.8829 2.72201 16.7189 3.21426 16.6525V16.6488ZM6.92849 16.6155H10.6427C10.6427 14.1674 11.621 11.8195 13.3624 10.0884C15.1038 8.35734 17.4656 7.38482 19.9283 7.38482C22.391 7.38482 24.7528 8.35734 26.4942 10.0884C28.2356 11.8195 29.2139 14.1674 29.2139 16.6155H32.9281C32.9281 13.1881 31.5585 9.90113 29.1205 7.4776C26.6826 5.05406 23.3761 3.69253 19.9283 3.69253C16.4805 3.69253 13.174 5.05406 10.736 7.4776C8.29811 9.90113 6.92849 13.1881 6.92849 16.6155ZM14.3569 16.6155H25.4996C25.4996 15.1467 24.9127 13.7379 23.8678 12.6993C22.823 11.6606 21.4059 11.0771 19.9283 11.0771C18.4507 11.0771 17.0336 11.6606 15.9888 12.6993C14.9439 13.7379 14.3569 15.1467 14.3569 16.6155ZM39.8588 16.6155H43.8368C44.1172 15.5244 44.1433 14.384 43.9132 13.2812C43.6831 12.1785 43.2028 11.1425 42.5089 10.2522C41.8151 9.36199 40.9259 8.64092 39.9093 8.14401C38.8926 7.64709 37.7752 7.38743 36.6423 7.38482C35.7509 7.38482 34.9041 7.5399 34.1166 7.8242C34.7741 8.87281 35.3163 10.0027 35.7323 11.1879C36.4398 11.0135 37.1832 11.0494 37.8702 11.2912C38.5573 11.533 39.1579 11.97 39.5973 12.548C40.0368 13.1261 40.2958 13.8197 40.3423 14.5428C40.3888 15.2658 40.2207 15.9866 39.8588 16.6155ZM34.7852 40.6154H16.2141V42.4616C16.2141 42.9512 16.4097 43.4208 16.758 43.767C17.1063 44.1132 17.5786 44.3077 18.0712 44.3077H32.9281C33.4206 44.3077 33.893 44.1132 34.2413 43.767C34.5896 43.4208 34.7852 42.9512 34.7852 42.4616V40.6154ZM14.9067 36.9231H36.0926C41.9834 35.0401 45.7125 29.7158 47.2873 20.3078H3.71197C5.2868 29.7158 9.01589 35.0401 14.9067 36.9231Z" fill="#ffffff"/>
</svg>
