<svg width="53" height="41" viewBox="0 0 53 41" fill="none" xmlns="http://www.w3.org/2000/svg">
<path d="M3.82066 18.6337H26.1821V22.3606H3.82066V18.6337ZM0.09375 9.31641H18.7283V13.0433H0.09375V9.31641Z" fill="#000"/>
<path d="M52.1196 19.7638L46.5293 6.71962C46.3858 6.38435 46.147 6.09859 45.8426 5.89784C45.5381 5.69708 45.1814 5.59017 44.8168 5.59037H39.2264V1.86346C39.2264 1.36924 39.0301 0.89526 38.6806 0.545794C38.3311 0.196328 37.8572 0 37.3629 0H7.54763V3.72691H35.4995V27.1245C34.6504 27.6175 33.9072 28.2738 33.313 29.0555C32.7188 29.8371 32.2852 30.7287 32.0372 31.6788H20.3272C19.8737 29.9222 18.795 28.3913 17.2935 27.3731C15.792 26.3548 13.9706 25.9192 12.1709 26.1478C10.3711 26.3764 8.71651 27.2535 7.51721 28.6148C6.31791 29.9761 5.65625 31.728 5.65625 33.5422C5.65625 35.3564 6.31791 37.1084 7.51721 38.4696C8.71651 39.8309 10.3711 40.708 12.1709 40.9366C13.9706 41.1652 15.792 40.7296 17.2935 39.7114C18.795 38.6932 19.8737 37.1623 20.3272 35.4057H32.0372C32.4425 37.005 33.3696 38.4234 34.6717 39.4366C35.9738 40.4499 37.5765 41 39.2264 41C40.8762 41 42.479 40.4499 43.7811 39.4366C45.0832 38.4234 46.0102 37.005 46.4156 35.4057H50.4071C50.9013 35.4057 51.3753 35.2093 51.7248 34.8599C52.0743 34.5104 52.2706 34.0364 52.2706 33.5422V20.498C52.2707 20.2456 52.2193 19.9958 52.1196 19.7638ZM13.138 37.2691C12.4009 37.2691 11.6803 37.0505 11.0674 36.641C10.4545 36.2315 9.97686 35.6494 9.69478 34.9684C9.4127 34.2874 9.33889 33.5381 9.48269 32.8151C9.6265 32.0922 9.98145 31.4281 10.5027 30.9069C11.0239 30.3857 11.688 30.0307 12.4109 29.8869C13.1339 29.7431 13.8832 29.8169 14.5642 30.099C15.2452 30.3811 15.8273 30.8588 16.2368 31.4716C16.6463 32.0845 16.8649 32.8051 16.8649 33.5422C16.8639 34.5303 16.4709 35.4777 15.7722 36.1764C15.0735 36.8752 14.1261 37.2681 13.138 37.2691ZM39.2264 9.31728H43.5869L47.5821 18.6346H39.2264V9.31728ZM39.2264 37.2691C38.4893 37.2691 37.7687 37.0505 37.1558 36.641C36.5429 36.2315 36.0652 35.6494 35.7832 34.9684C35.5011 34.2874 35.4273 33.5381 35.5711 32.8151C35.7149 32.0922 36.0698 31.4281 36.5911 30.9069C37.1123 30.3857 37.7763 30.0307 38.4993 29.8869C39.2222 29.7431 39.9716 29.8169 40.6526 30.099C41.3336 30.3811 41.9157 30.8588 42.3252 31.4716C42.7347 32.0845 42.9533 32.8051 42.9533 33.5422C42.9523 34.5303 42.5593 35.4777 41.8606 36.1764C41.1619 36.8752 40.2145 37.2681 39.2264 37.2691ZM48.5437 31.6788H46.4156C46.0051 30.0826 45.0766 28.6677 43.7755 27.656C42.4745 26.6443 40.8745 26.093 39.2264 26.0884V22.3615H48.5437V31.6788Z" fill="#000"/>
</svg>
