<svg width="44" height="44" viewBox="0 0 44 44" fill="none" xmlns="http://www.w3.org/2000/svg">
<path fill-rule="evenodd" clip-rule="evenodd" d="M42.4595 22.4915C42.4595 20.9812 42.324 19.5289 42.0723 18.1348H22.0117V26.3739H33.4749C32.9811 29.0364 31.4805 31.2922 29.2246 32.8026V38.1469H36.1083C40.1359 34.4388 42.4595 28.9783 42.4595 22.4915Z" fill="#4285F4"/>
<path fill-rule="evenodd" clip-rule="evenodd" d="M22.0128 43.308C27.7638 43.308 32.5853 41.4007 36.1094 38.1477L29.2257 32.8033C27.3184 34.0813 24.8786 34.8365 22.0128 34.8365C16.4652 34.8365 11.7695 31.0897 10.0946 26.0552H2.97852V31.5738C6.4833 38.5349 13.6865 43.308 22.0128 43.308Z" fill="#34A853"/>
<path fill-rule="evenodd" clip-rule="evenodd" d="M10.0925 26.0549C9.66655 24.7769 9.4245 23.4118 9.4245 22.0079C9.4245 20.6041 9.66655 19.239 10.0925 17.961V12.4424H2.97646C1.53389 15.3179 0.710938 18.5709 0.710938 22.0079C0.710938 25.445 1.53389 28.698 2.97646 31.5735L10.0925 26.0549Z" fill="#FBBC05"/>
<path fill-rule="evenodd" clip-rule="evenodd" d="M22.0128 9.17953C25.14 9.17953 27.9477 10.2542 30.1552 12.3648L36.2643 6.25564C32.5756 2.81863 27.7541 0.708008 22.0128 0.708008C13.6865 0.708008 6.4833 5.4811 2.97852 12.4423L10.0946 17.9609C11.7695 12.9264 16.4652 9.17953 22.0128 9.17953Z" fill="#EA4335"/>
</svg>
