<svg width="36" height="44" viewBox="0 0 36 44" fill="none" xmlns="http://www.w3.org/2000/svg">
<path d="M35.2008 33.9046C34.5566 35.3929 33.794 36.7629 32.9105 38.0224C31.7062 39.7395 30.7201 40.928 29.9601 41.5881C28.7821 42.6714 27.5199 43.2262 26.1684 43.2578C25.1981 43.2578 24.0279 42.9817 22.6658 42.4216C21.2993 41.8642 20.0434 41.5881 18.8951 41.5881C17.6908 41.5881 16.3992 41.8642 15.0176 42.4216C13.6339 42.9817 12.5193 43.2736 11.6671 43.3025C10.371 43.3577 9.07907 42.7871 7.78955 41.5881C6.96651 40.8702 5.93705 39.6396 4.7038 37.8962C3.38062 36.0345 2.29279 33.8757 1.44056 31.4144C0.52785 28.756 0.0703125 26.1817 0.0703125 23.6894C0.0703125 20.8345 0.6872 18.3722 1.92281 16.3088C2.8939 14.6515 4.18579 13.3441 5.80268 12.3843C7.41958 11.4245 9.16664 10.9354 11.0481 10.9041C12.0775 10.9041 13.4275 11.2225 15.1052 11.8484C16.7781 12.4763 17.8522 12.7947 18.3232 12.7947C18.6753 12.7947 19.8685 12.4224 21.8914 11.6801C23.8044 10.9917 25.419 10.7066 26.7416 10.8189C30.3257 11.1082 33.0183 12.521 34.809 15.0664C31.6036 17.0086 30.018 19.7288 30.0496 23.2184C30.0785 25.9366 31.0646 28.1985 33.0025 29.9945C33.8808 30.828 34.8616 31.4723 35.9528 31.9298C35.7162 32.6161 35.4664 33.2735 35.2008 33.9046ZM26.9809 1.55878C26.9809 3.68924 26.2026 5.67846 24.6511 7.51965C22.7789 9.70847 20.5144 10.9733 18.0586 10.7737C18.0274 10.5181 18.0092 10.2491 18.0092 9.96642C18.0092 7.92118 18.8996 5.73236 20.4807 3.94271C21.2701 3.03657 22.274 2.28313 23.4915 1.6821C24.7064 1.09004 25.8555 0.762613 26.9362 0.706543C26.9678 0.991353 26.9809 1.27618 26.9809 1.55875V1.55878Z" fill="white"/>
</svg>
