<svg width="47" height="47" viewBox="0 0 47 47" fill="none" xmlns="http://www.w3.org/2000/svg">
<path d="M44.75 44.752H2.25M40.5 44.752V21.377M6.5 44.752V21.377" stroke="black" stroke-width="4.33333" stroke-linecap="round"/>
<path d="M33.1237 2.25195H13.8797C11.3233 2.25195 10.0462 2.25195 9.0198 2.88733C7.9913 3.52058 7.41967 4.66383 6.27855 6.95033L3.29292 14.492C2.60442 16.2345 2.00092 18.2872 3.16117 19.7598C3.70776 20.4547 4.45746 20.9619 5.30587 21.2107C6.15428 21.4594 7.05914 21.4374 7.89444 21.1477C8.72974 20.8579 9.45389 20.3149 9.96603 19.5942C10.4782 18.8735 10.7528 18.0111 10.7517 17.127C10.7517 18.2541 11.1994 19.3351 11.9965 20.1322C12.7935 20.9292 13.8745 21.377 15.0017 21.377C16.1288 21.377 17.2098 20.9292 18.0069 20.1322C18.8039 19.3351 19.2517 18.2541 19.2517 17.127C19.2517 18.2541 19.6994 19.3351 20.4965 20.1322C21.2935 20.9292 22.3745 21.377 23.5017 21.377C24.6288 21.377 25.7098 20.9292 26.5069 20.1322C27.3039 19.3351 27.7517 18.2541 27.7517 17.127C27.7517 18.2541 28.1994 19.3351 28.9965 20.1322C29.7935 20.9292 30.8745 21.377 32.0017 21.377C33.1288 21.377 34.2098 20.9292 35.0069 20.1322C35.8039 19.3351 36.2517 18.2541 36.2517 17.127C36.2516 18.0104 36.5267 18.8719 37.0389 19.5916C37.5511 20.3114 38.2749 20.8537 39.1096 21.1431C39.9442 21.4324 40.8484 21.4545 41.6962 21.2062C42.544 20.9579 43.2933 20.4516 43.84 19.7577C45.0003 18.2851 44.3968 16.2323 43.7083 14.4898L40.7248 6.95033C39.5837 4.66383 39.0121 3.52058 37.9836 2.88733C36.9572 2.25195 35.6801 2.25195 33.1237 2.25195Z" stroke="black" stroke-width="4.33333" stroke-linejoin="round"/>
<path d="M18.1875 43.6895V37.3145C18.1875 35.3276 18.1875 34.3352 18.6146 33.5957C18.8944 33.1112 19.2967 32.7088 19.7812 32.4291C20.5207 32.002 21.5131 32.002 23.5 32.002C25.4869 32.002 26.4793 32.002 27.2188 32.4291C27.7033 32.7088 28.1056 33.1112 28.3854 33.5957C28.8125 34.3352 28.8125 35.3276 28.8125 37.3145V43.6895" stroke="black" stroke-width="3.46667" stroke-linecap="round"/>
</svg>
