<svg width="52" height="52" viewBox="0 0 52 52" fill="none" xmlns="http://www.w3.org/2000/svg">
<path d="M48.75 30.8751H40.5336C40.5936 30.3355 40.6241 29.793 40.625 29.2501C40.625 25.3713 39.0842 21.6513 36.3414 18.9086C33.5987 16.1659 29.8788 14.6251 26 14.6251C22.1212 14.6251 18.4013 16.1659 15.6586 18.9086C12.9158 21.6513 11.375 25.3713 11.375 29.2501C11.3759 29.793 11.4064 30.3355 11.4664 30.8751H3.25C2.81902 30.8751 2.4057 31.0463 2.10095 31.351C1.7962 31.6558 1.625 32.0691 1.625 32.5001C1.625 32.931 1.7962 33.3444 2.10095 33.6491C2.4057 33.9539 2.81902 34.1251 3.25 34.1251H48.75C49.181 34.1251 49.5943 33.9539 49.899 33.6491C50.2038 33.3444 50.375 32.931 50.375 32.5001C50.375 32.0691 50.2038 31.6558 49.899 31.351C49.5943 31.0463 49.181 30.8751 48.75 30.8751ZM14.625 29.2501C14.622 27.6858 14.9417 26.1378 15.5641 24.7026C16.1864 23.2675 17.0981 21.9762 18.2421 20.9094C19.3861 19.8425 20.7378 19.0231 22.2129 18.5023C23.6879 17.9815 25.2544 17.7705 26.8147 17.8826C28.3749 17.9946 29.8953 18.4273 31.2808 19.1534C32.6662 19.8796 33.887 20.8838 34.8669 22.1031C35.8467 23.3225 36.5645 24.7308 36.9755 26.2401C37.3864 27.7494 37.4816 29.3273 37.2552 30.8751H14.7448C14.6662 30.337 14.6261 29.7939 14.625 29.2501ZM43.875 40.6251C43.875 41.056 43.7038 41.4694 43.399 41.7741C43.0943 42.0789 42.681 42.2501 42.25 42.2501H9.75C9.31902 42.2501 8.9057 42.0789 8.60095 41.7741C8.29621 41.4694 8.125 41.056 8.125 40.6251C8.125 40.1941 8.29621 39.7808 8.60095 39.476C8.9057 39.1713 9.31902 39.0001 9.75 39.0001H42.25C42.681 39.0001 43.0943 39.1713 43.399 39.476C43.7038 39.7808 43.875 40.1941 43.875 40.6251ZM14.7956 8.85225C14.6028 8.46653 14.571 8.01999 14.7074 7.61087C14.8438 7.20174 15.1371 6.86355 15.5228 6.67069C15.9085 6.47783 16.3551 6.44609 16.7642 6.58247C17.1733 6.71884 17.5115 7.01215 17.7044 7.39788L19.3294 10.6479C19.4249 10.8389 19.4818 11.0468 19.497 11.2598C19.5121 11.4728 19.4851 11.6867 19.4176 11.8893C19.3501 12.0918 19.2433 12.2791 19.1034 12.4405C18.9635 12.6018 18.7932 12.7339 18.6022 12.8294C18.4112 12.9249 18.2033 12.9819 17.9903 12.997C17.7773 13.0122 17.5634 12.9852 17.3608 12.9177C17.1582 12.8501 16.9709 12.7434 16.8096 12.6035C16.6483 12.4636 16.5161 12.2932 16.4206 12.1023L14.7956 8.85225ZM3.42062 18.7729C3.51619 18.582 3.64845 18.4118 3.80983 18.272C3.97121 18.1322 4.15855 18.0256 4.36114 17.9583C4.56374 17.8909 4.77762 17.8641 4.99057 17.8795C5.20351 17.8949 5.41134 17.952 5.60219 18.0477L8.85219 19.6727C9.23764 19.8656 9.5307 20.2037 9.66688 20.6126C9.80306 21.0215 9.77122 21.4678 9.57836 21.8533C9.3855 22.2387 9.04741 22.5318 8.63848 22.668C8.22955 22.8041 7.78327 22.7723 7.39781 22.5794L4.14781 20.9544C3.95673 20.859 3.78632 20.7269 3.64633 20.5656C3.50635 20.4043 3.39953 20.217 3.33199 20.0144C3.26446 19.8118 3.23752 19.5978 3.25273 19.3848C3.26794 19.1718 3.32499 18.9638 3.42062 18.7729ZM42.4206 21.8523C42.2281 21.4668 42.1966 21.0206 42.333 20.6119C42.4693 20.2032 42.7624 19.8654 43.1478 19.6727L46.3978 18.0477C46.5887 17.9522 46.7965 17.8953 47.0093 17.8801C47.2222 17.8649 47.436 17.8918 47.6385 17.9592C47.841 18.0266 48.0282 18.1333 48.1894 18.2731C48.3507 18.4129 48.4829 18.583 48.5784 18.7739C48.6739 18.9648 48.7308 19.1725 48.746 19.3854C48.7612 19.5983 48.7343 19.8121 48.6669 20.0146C48.5994 20.217 48.4928 20.4043 48.353 20.5655C48.2132 20.7268 48.043 20.8589 47.8522 20.9544L44.6022 22.5794C44.4112 22.6751 44.2033 22.7321 43.9902 22.7473C43.7772 22.7625 43.5633 22.7356 43.3607 22.6681C43.1581 22.6005 42.9707 22.4937 42.8094 22.3537C42.6481 22.2137 42.516 22.0433 42.4206 21.8523ZM32.6706 10.6479L34.2956 7.39788C34.4885 7.01215 34.8267 6.71884 35.2358 6.58247C35.6449 6.44609 36.0915 6.47783 36.4772 6.67069C36.8629 6.86355 37.1562 7.20174 37.2926 7.61087C37.429 8.01999 37.3972 8.46653 37.2044 8.85225L35.5794 12.1023C35.3865 12.488 35.0483 12.7813 34.6392 12.9177C34.2301 13.054 33.7835 13.0223 33.3978 12.8294C33.0121 12.6366 32.7188 12.2984 32.5824 11.8893C32.446 11.4801 32.4778 11.0336 32.6706 10.6479Z" fill="#ffffff"/>
</svg>
