<svg width="52" height="52" viewBox="0 0 52 52" fill="none" xmlns="http://www.w3.org/2000/svg">
<path d="M47.6673 47.6666H4.33398M43.334 47.6666V23.8333M8.66732 47.6666V23.8333" stroke="#04622D" stroke-width="3" stroke-linecap="round"/>
<path d="M35.8119 4.33325H16.1905C13.584 4.33325 12.2819 4.33325 11.2354 4.98109C10.1867 5.62675 9.60387 6.79242 8.44037 9.12375L5.39621 16.8133C4.69421 18.5899 4.07887 20.6829 5.26187 22.1844C5.81918 22.893 6.58358 23.4101 7.44862 23.6637C8.31367 23.9174 9.23628 23.8949 10.088 23.5995C10.9396 23.3041 11.678 22.7504 12.2002 22.0156C12.7223 21.2808 13.0024 20.4014 13.0012 19.4999C13.0012 20.6492 13.4578 21.7514 14.2704 22.564C15.0831 23.3767 16.1853 23.8333 17.3345 23.8333C18.4838 23.8333 19.586 23.3767 20.3987 22.564C21.2113 21.7514 21.6679 20.6492 21.6679 19.4999C21.6679 20.6492 22.1244 21.7514 22.9371 22.564C23.7497 23.3767 24.8519 23.8333 26.0012 23.8333C27.1505 23.8333 28.2527 23.3767 29.0653 22.564C29.878 21.7514 30.3345 20.6492 30.3345 19.4999C30.3345 20.6492 30.7911 21.7514 31.6037 22.564C32.4164 23.3767 33.5186 23.8333 34.6679 23.8333C35.8171 23.8333 36.9193 23.3767 37.732 22.564C38.5447 21.7514 39.0012 20.6492 39.0012 19.4999C39.0011 20.4007 39.2816 21.2791 39.8039 22.0129C40.3261 22.7468 41.0641 23.2997 41.9151 23.5948C42.7662 23.8898 43.688 23.9123 44.5524 23.6592C45.4169 23.406 46.1809 22.8898 46.7384 22.1823C47.9214 20.6808 47.306 18.5878 46.604 16.8111L43.562 9.12375C42.3985 6.79242 41.8157 5.62675 40.767 4.98109C39.7205 4.33325 38.4184 4.33325 35.8119 4.33325Z" stroke="#04622D" stroke-width="3" stroke-linejoin="round"/>
<path d="M20.584 46.5832V40.0832C20.584 38.0573 20.584 37.0455 21.0195 36.2915C21.3047 35.7975 21.715 35.3872 22.209 35.102C22.963 34.6665 23.9748 34.6665 26.0007 34.6665C28.0265 34.6665 29.0383 34.6665 29.7923 35.102C30.2863 35.3872 30.6966 35.7975 30.9818 36.2915C31.4173 37.0455 31.4173 38.0573 31.4173 40.0832V46.5832" stroke="#04622D" stroke-width="3" stroke-linecap="round"/>
</svg>
