<svg width="24" height="24" viewBox="0 0 24 24" fill="none" xmlns="http://www.w3.org/2000/svg">
<path d="M12 10.4444H15L14.6667 12H12V19H10.6667V12H8V10.4444H10.6667V8.98844C10.6667 7.60167 10.7907 7.09844 11.0227 6.59133C11.25 6.09029 11.6012 5.68056 12.0307 5.41533C12.4653 5.14467 12.8967 5 14.0853 5C14.4333 5 14.7387 5.03889 15 5.11667V6.55556H14.0853C13.2027 6.55556 12.934 6.61622 12.6593 6.78733C12.4622 6.9075 12.3014 7.09537 12.1987 7.32556C12.052 7.64522 12 7.95867 12 8.98844V10.4444Z" fill="white"/>
<rect x="0.5" y="0.5" width="23" height="23" rx="3.5" stroke="white"/>
</svg>
