<svg width="32" height="26" viewBox="0 0 32 26" fill="none" xmlns="http://www.w3.org/2000/svg">
<path d="M3.24935 1.66699H18.8327C19.2084 1.66699 19.5687 1.81625 19.8344 2.08192C20.1001 2.3476 20.2493 2.70794 20.2493 3.08366V18.667C20.2493 19.0427 20.1001 19.4031 19.8344 19.6687C19.5687 19.9344 19.2084 20.0837 18.8327 20.0837H3.24935C2.87362 20.0837 2.51329 19.9344 2.24761 19.6687C1.98194 19.4031 1.83268 19.0427 1.83268 18.667V3.08366C1.83268 2.70794 1.98194 2.3476 2.24761 2.08192C2.51329 1.81625 2.87362 1.66699 3.24935 1.66699ZM30.166 20.0837H20.2493V10.167H25.2077L30.166 14.7442V20.0837Z" stroke="white" stroke-width="2.83333" stroke-linejoin="round"/>
<path d="M20.2493 21.5005C20.2493 22.2519 20.5479 22.9726 21.0792 23.504C21.6106 24.0353 22.3312 24.3338 23.0827 24.3338C23.8341 24.3338 24.5548 24.0353 25.0862 23.504C25.6175 22.9726 25.916 22.2519 25.916 21.5005M4.66602 21.5005C4.66602 22.2519 4.96453 22.9726 5.49588 23.504C6.02723 24.0353 6.7479 24.3338 7.49935 24.3338C8.2508 24.3338 8.97147 24.0353 9.50282 23.504C10.0342 22.9726 10.3327 22.2519 10.3327 21.5005" stroke="white" stroke-width="2.83333" stroke-linecap="round" stroke-linejoin="round"/>
</svg>
