<svg width="20" height="20" viewBox="0 0 20 20" fill="none" xmlns="http://www.w3.org/2000/svg">
<path d="M14.1654 14.9993C13.2404 14.9993 12.4987 15.741 12.4987 16.666C12.4987 17.108 12.6743 17.532 12.9869 17.8445C13.2994 18.1571 13.7233 18.3327 14.1654 18.3327C14.6074 18.3327 15.0313 18.1571 15.3439 17.8445C15.6564 17.532 15.832 17.108 15.832 16.666C15.832 16.224 15.6564 15.8001 15.3439 15.4875C15.0313 15.1749 14.6074 14.9993 14.1654 14.9993ZM0.832031 1.66602V3.33268H2.4987L5.4987 9.65768L4.36536 11.6993C4.24036 11.9327 4.16536 12.2077 4.16536 12.4993C4.16536 12.9414 4.34096 13.3653 4.65352 13.6779C4.96608 13.9904 5.39 14.166 5.83203 14.166H15.832V12.4993H6.18203C6.12678 12.4993 6.07379 12.4774 6.03472 12.4383C5.99565 12.3993 5.9737 12.3463 5.9737 12.291C5.9737 12.2493 5.98203 12.216 5.9987 12.191L6.7487 10.8327H12.957C13.582 10.8327 14.132 10.4827 14.4154 9.97435L17.3987 4.58268C17.457 4.44935 17.4987 4.30768 17.4987 4.16602C17.4987 3.945 17.4109 3.73304 17.2546 3.57676C17.0983 3.42048 16.8864 3.33268 16.6654 3.33268H4.34036L3.55703 1.66602M5.83203 14.9993C4.90703 14.9993 4.16536 15.741 4.16536 16.666C4.16536 17.108 4.34096 17.532 4.65352 17.8445C4.96608 18.1571 5.39 18.3327 5.83203 18.3327C6.27406 18.3327 6.69798 18.1571 7.01054 17.8445C7.3231 17.532 7.4987 17.108 7.4987 16.666C7.4987 16.224 7.3231 15.8001 7.01054 15.4875C6.69798 15.1749 6.27406 14.9993 5.83203 14.9993Z" fill="#3D3D3D"/>
</svg>
