<svg width="64" height="50" viewBox="0 0 64 50" fill="none" xmlns="http://www.w3.org/2000/svg">
<path d="M4.54501 22.7239H31.8151V27.2689H4.54501V22.7239ZM0 11.3613H22.7251V15.9063H0V11.3613Z" fill="#04622D"/>
<path d="M63.4439 24.1022L56.6264 8.19466C56.4514 7.78579 56.1603 7.43731 55.789 7.19249C55.4177 6.94766 54.9827 6.81728 54.538 6.81752H47.7204V2.27251C47.7204 1.6698 47.481 1.09178 47.0548 0.665603C46.6287 0.239425 46.0506 0 45.4479 0H9.08781V4.54502H43.1754V33.0786C42.1399 33.6799 41.2337 34.4803 40.509 35.4335C39.7843 36.3867 39.2555 37.474 38.9531 38.6326H24.6727C24.1196 36.4904 22.8041 34.6235 20.973 33.3818C19.1419 32.14 16.9207 31.6088 14.7259 31.8876C12.5311 32.1663 10.5133 33.236 9.05071 34.8961C7.58815 36.5562 6.78125 38.6927 6.78125 40.9051C6.78125 43.1176 7.58815 45.2541 9.05071 46.9142C10.5133 48.5743 12.5311 49.6439 14.7259 49.9227C16.9207 50.2015 19.1419 49.6702 20.973 48.4285C22.8041 47.1868 24.1196 45.3198 24.6727 43.1776H38.9531C39.4475 45.128 40.578 46.8578 42.1659 48.0935C43.7538 49.3291 45.7084 50 47.7204 50C49.7325 50 51.687 49.3291 53.275 48.0935C54.8629 46.8578 55.9934 45.128 56.4878 43.1776H61.3555C61.9582 43.1776 62.5362 42.9382 62.9624 42.512C63.3886 42.0859 63.628 41.5078 63.628 40.9051V24.9976C63.6281 24.6897 63.5655 24.3851 63.4439 24.1022ZM15.9053 45.4502C15.0064 45.4502 14.1277 45.1836 13.3803 44.6842C12.6328 44.1848 12.0503 43.4749 11.7063 42.6444C11.3623 41.8139 11.2723 40.9001 11.4476 40.0184C11.623 39.1368 12.0559 38.327 12.6915 37.6913C13.3272 37.0557 14.137 36.6228 15.0186 36.4475C15.9003 36.2721 16.8141 36.3621 17.6446 36.7061C18.4751 37.0501 19.185 37.6326 19.6844 38.3801C20.1838 39.1275 20.4503 40.0062 20.4503 40.9051C20.4491 42.1102 19.9699 43.2655 19.1178 44.1176C18.2657 44.9697 17.1104 45.449 15.9053 45.4502ZM47.7204 11.3625H53.0381L57.9104 22.7251H47.7204V11.3625ZM47.7204 45.4502C46.8215 45.4502 45.9428 45.1836 45.1954 44.6842C44.4479 44.1848 43.8654 43.4749 43.5214 42.6444C43.1774 41.8139 43.0874 40.9001 43.2628 40.0184C43.4381 39.1368 43.871 38.327 44.5066 37.6913C45.1423 37.0557 45.9521 36.6228 46.8337 36.4475C47.7154 36.2721 48.6292 36.3621 49.4597 36.7061C50.2902 37.0501 51.0001 37.6326 51.4995 38.3801C51.9989 39.1275 52.2655 40.0062 52.2655 40.9051C52.2643 42.1102 51.785 43.2655 50.9329 44.1176C50.0808 44.9697 48.9255 45.449 47.7204 45.4502ZM59.083 38.6326H56.4878C55.9872 36.6861 54.8548 34.9607 53.2682 33.7269C51.6815 32.4931 49.7303 31.8207 47.7204 31.8151V27.2701H59.083V38.6326Z" fill="#04622D"/>
</svg>
