<svg width="49" height="104" viewBox="0 0 49 104" fill="none" xmlns="http://www.w3.org/2000/svg">
<g clip-path="url(#clip0_621_1119)">
<path d="M15.7615 0.273438L14.8389 0.317227L13.9245 0.377437C12.6897 0.47049 11.4687 0.604595 10.3316 0.787964L9.58224 0.916595L8.88099 1.05617C6.05537 1.65965 4.4535 2.56965 4.4535 4.26649V10.917C4.44249 11.1825 4.47687 11.4835 4.60474 11.8024C4.77249 12.228 5.08049 12.5851 5.53699 12.7876L5.65249 12.8424L5.77349 12.9108L5.75562 13.0367C5.71937 13.2132 5.65385 13.3825 5.56174 13.5375L5.41324 13.7551L5.12724 14.089L4.79174 14.4612L4.17299 15.1208L3.18575 16.1403L2.10224 17.2295C1.90287 17.391 1.54399 17.781 1.19474 18.3352C0.588121 19.2918 0.268512 20.4008 0.273495 21.5319V30.2692C0.306495 30.6195 0.36287 30.922 0.471495 31.2435C0.553995 31.4885 0.655745 31.7088 0.793245 31.9031L1.12462 32.3109L1.30749 32.5518V93.3521L1.01599 93.92L0.947245 94.0021C0.861923 94.1112 0.783401 94.2255 0.71212 94.3442C0.429705 94.7943 0.277898 95.3133 0.273495 95.844V99.1583L0.34912 99.3499C0.50037 99.7344 0.779495 100.261 1.21262 100.795C1.98812 101.753 2.98912 102.358 4.21837 102.358H27.4022C28.6315 102.358 29.6325 101.751 30.408 100.795C30.8411 100.261 31.1216 99.7344 31.2715 99.3499L31.3471 99.1583V95.844C31.3471 95.2925 31.1794 94.7903 30.9085 94.3442L30.7902 94.1608L30.7311 94.0787L30.6019 93.9186L30.3117 93.3521V32.5518L30.5716 32.2179L30.6802 32.0906C30.8947 31.8525 31.0377 31.5706 31.1477 31.2435C31.2577 30.922 31.3141 30.6195 31.3402 30.3924L31.3471 21.5319C31.3471 20.3208 31.0006 19.2493 30.4259 18.3352C30.1601 17.8983 29.8296 17.5039 29.4455 17.1652L29.2502 16.9641L28.4335 16.1389L27.4462 15.1208L26.8275 14.4612L26.492 14.089L26.1702 13.7072L26.0575 13.5375C25.9654 13.3825 25.8999 13.2132 25.8636 13.0367L25.8444 12.9135C25.9269 12.8629 26.008 12.8191 26.0836 12.7863C26.5387 12.5851 26.8467 12.228 27.0159 11.801C27.1162 11.5465 27.1589 11.3043 27.1671 11.0812L27.1644 10.8719L27.1671 4.26649C27.1671 2.59975 25.623 1.68975 22.8895 1.08765L22.2102 0.948069C22.0912 0.925435 21.972 0.90354 21.8527 0.882385L21.1089 0.759227C19.909 0.577243 18.7021 0.444849 17.4912 0.362385L17.0719 0.335016L16.0227 0.28028L15.7615 0.274806V0.273438Z" fill="#04622D"/>
<path d="M3.47172 95.9703L3.52442 95.9196L3.64469 95.8037L3.72078 95.655L4.39591 94.3359L4.50572 94.1213V93.8803V31.8634V31.5519L4.32881 31.2955L4.04556 30.885L4.03801 30.874L4.03016 30.8633L3.79641 30.5431L3.78409 30.5262L3.77107 30.5098L3.48782 30.1541L3.47994 30.1442C3.47888 30.1398 3.47784 30.1353 3.47683 30.1309L3.46491 30.0614L3.47172 21.5326V21.5318C3.47172 20.9591 3.63191 20.4647 3.9039 20.0309C3.98776 19.8981 4.06723 19.7923 4.131 19.716C4.18726 19.6486 4.22213 19.615 4.2294 19.608C4.23101 19.6064 4.23126 19.6062 4.23009 19.6072L4.25923 19.5827L4.28642 19.5561L4.62467 19.2249L4.6302 19.2195L4.63565 19.214L5.7604 18.0782L5.76601 18.0725L5.77154 18.0668L6.75329 17.0432L6.75957 17.0367L6.76572 17.03L7.37072 16.3759L7.38089 16.3649L7.39072 16.3536L7.71247 15.9841L7.72123 15.9741L7.72972 15.9638L7.94422 15.7038L7.95469 15.6911L7.96473 15.6781L8.01011 15.6192L8.01565 15.6121L8.02105 15.6048C8.85964 14.4755 9.0868 13.2495 8.94538 12.1693L8.94246 12.147L8.93855 12.1249L8.90005 11.9073L8.8951 11.8793L8.88857 11.8517L8.80744 11.5082L8.7336 11.1955L8.49148 10.9844L8.22473 10.7518L8.22477 10.7517L8.21622 10.7444C8.13018 10.6711 8.04163 10.6007 7.95073 10.5334L7.93995 10.5254L7.92897 10.5177L7.65122 10.3234L7.64921 10.322L7.6515 4.78849C7.72259 4.75293 7.80656 4.71395 7.90489 4.67269L7.90646 4.67203C8.55399 4.39902 9.54828 4.14489 10.8389 3.93627C12.4894 3.67809 14.1541 3.52024 15.8238 3.46361L16.1518 3.47816C16.1524 3.47819 16.153 3.47822 16.1536 3.47825C16.4885 3.49432 16.8603 3.51572 17.2627 3.54508L17.2656 3.54529C18.4168 3.62587 19.5608 3.7463 20.6147 3.91073L20.6153 3.91083C21.9445 4.1173 22.9779 4.37226 23.6583 4.6488L23.8317 4.72441C23.8821 4.74691 23.9274 4.76825 23.968 4.78822L23.9668 10.3244C23.7984 10.4357 23.649 10.5449 23.523 10.6459L23.5097 10.6566L23.4968 10.6677L23.1338 10.9797L22.8867 11.1921L22.8121 11.5093L22.7172 11.9129L22.7088 11.9487L22.7031 11.985L22.6783 12.141L22.6762 12.1544L22.6744 12.1679C22.5457 13.1511 22.7224 14.253 23.3856 15.2971L23.3992 15.3185L23.4139 15.3391L23.6311 15.6457L23.6523 15.6755L23.6756 15.7038L23.8901 15.9638L23.8993 15.9749L23.9087 15.9857L24.2319 16.3552L24.2391 16.3635L24.2465 16.3716L24.6342 16.7958L24.6403 16.8024L24.6465 16.809L25.3313 17.5315L25.3363 17.5368L25.3414 17.542L26.4029 18.6299L26.4028 18.6299L26.4103 18.6375L27.2532 19.4831L27.2808 19.5109L27.3106 19.5364C27.408 19.6199 27.5496 19.7663 27.7157 20.0305L27.7162 20.0313C27.9885 20.4636 28.1481 20.9563 28.1481 21.5318V30.112L28.1367 30.152L27.997 30.3214L27.9894 30.3306L27.982 30.34L27.8445 30.5152L27.8337 30.529L27.8234 30.5431L27.5896 30.8633L27.5818 30.874L27.5742 30.885L27.291 31.2955L27.1141 31.5519V31.8634V93.8803V94.1217L27.2243 94.3366L27.9008 95.6557L27.973 95.7966L28.0852 95.9082L28.1481 95.9708V98.4672C28.0864 98.5683 28.0097 98.6804 27.9199 98.7918C27.6281 99.1501 27.4565 99.1681 27.4046 99.1681H4.21659C4.16456 99.1681 3.99377 99.1498 3.70637 98.7983L3.59578 98.6551C3.55196 98.5942 3.51058 98.5317 3.47172 98.4677V95.9703ZM3.47172 95.9703L3.45225 95.9891L3.45159 95.99M3.45159 95.99L3.44547 95.9994C3.44565 95.9991 3.44619 95.998 3.44699 95.9961L3.45159 95.99Z" fill="white" stroke="#04622D" stroke-width="2"/>
<rect x="22" y="45" width="14" height="28" fill="white"/>
</g>
<path d="M32.35 59.34V59.6231L32.5928 59.7687L39.8092 64.0986L38.9762 65.4521L30.8 60.4206V51H32.35V59.34ZM15.5 59C15.5 49.9261 22.9261 42.5 32 42.5C41.0739 42.5 48.5 49.9261 48.5 59C48.5 68.0739 41.0739 75.5 32 75.5C22.9261 75.5 15.5 68.0739 15.5 59ZM17.9 59C17.9 66.7731 24.2269 73.1 32 73.1C39.7731 73.1 46.1 66.7731 46.1 59C46.1 51.2269 39.7731 44.9 32 44.9C24.2269 44.9 17.9 51.2269 17.9 59Z" fill="#04622D" stroke="#04622D"/>
<defs>
<clipPath id="clip0_621_1119">
<rect width="33" height="104" fill="white"/>
</clipPath>
</defs>
</svg>
