<svg width="52" height="52" viewBox="0 0 52 52" fill="none" xmlns="http://www.w3.org/2000/svg">
<path d="M4 35.3333V27.3333H12.0625V35.3333H4ZM6.6875 30V32.6667H9.375V30H6.6875ZM4 24.6667V16.6667H12.0625V24.6667H4ZM6.6875 19.3333V22H9.375V19.3333H6.6875ZM4 14V6H12.0625V14H4ZM6.6875 8.66667V11.3333H9.375V8.66667H6.6875ZM17.4375 22V19.3333H41.625V22H17.4375ZM36.25 30V32.6667H17.4375V30H36.25ZM17.4375 8.66667H47V11.3333H17.4375V8.66667ZM4 46V38H12.0625V46H4ZM6.6875 40.6667V43.3333H9.375V40.6667H6.6875ZM17.4375 43.3333V40.6667H41.625V43.3333H17.4375Z" fill="#ffffff"/>
</svg>
