<svg width="52" height="52" viewBox="0 0 52 52" fill="none" xmlns="http://www.w3.org/2000/svg">
<path d="M42.25 8.125H9.75C7.05761 8.125 4.875 10.3076 4.875 13V42.25C4.875 44.9424 7.05761 47.125 9.75 47.125H42.25C44.9424 47.125 47.125 44.9424 47.125 42.25V13C47.125 10.3076 44.9424 8.125 42.25 8.125Z" stroke="white" stroke-width="3" stroke-linejoin="round"/>
<path d="M30.0625 26C31.4087 26 32.5 24.9087 32.5 23.5625C32.5 22.2163 31.4087 21.125 30.0625 21.125C28.7163 21.125 27.625 22.2163 27.625 23.5625C27.625 24.9087 28.7163 26 30.0625 26Z" fill="white"/>
<path d="M38.1875 26C39.5337 26 40.625 24.9087 40.625 23.5625C40.625 22.2163 39.5337 21.125 38.1875 21.125C36.8413 21.125 35.75 22.2163 35.75 23.5625C35.75 24.9087 36.8413 26 38.1875 26Z" fill="white"/>
<path d="M30.0625 34.125C31.4087 34.125 32.5 33.0337 32.5 31.6875C32.5 30.3413 31.4087 29.25 30.0625 29.25C28.7163 29.25 27.625 30.3413 27.625 31.6875C27.625 33.0337 28.7163 34.125 30.0625 34.125Z" fill="white"/>
<path d="M38.1875 34.125C39.5337 34.125 40.625 33.0337 40.625 31.6875C40.625 30.3413 39.5337 29.25 38.1875 29.25C36.8413 29.25 35.75 30.3413 35.75 31.6875C35.75 33.0337 36.8413 34.125 38.1875 34.125Z" fill="white"/>
<path d="M13.8125 34.125C15.1587 34.125 16.25 33.0337 16.25 31.6875C16.25 30.3413 15.1587 29.25 13.8125 29.25C12.4663 29.25 11.375 30.3413 11.375 31.6875C11.375 33.0337 12.4663 34.125 13.8125 34.125Z" fill="white"/>
<path d="M21.9375 34.125C23.2837 34.125 24.375 33.0337 24.375 31.6875C24.375 30.3413 23.2837 29.25 21.9375 29.25C20.5913 29.25 19.5 30.3413 19.5 31.6875C19.5 33.0337 20.5913 34.125 21.9375 34.125Z" fill="white"/>
<path d="M13.8125 42.25C15.1587 42.25 16.25 41.1587 16.25 39.8125C16.25 38.4663 15.1587 37.375 13.8125 37.375C12.4663 37.375 11.375 38.4663 11.375 39.8125C11.375 41.1587 12.4663 42.25 13.8125 42.25Z" fill="white"/>
<path d="M21.9375 42.25C23.2837 42.25 24.375 41.1587 24.375 39.8125C24.375 38.4663 23.2837 37.375 21.9375 37.375C20.5913 37.375 19.5 38.4663 19.5 39.8125C19.5 41.1587 20.5913 42.25 21.9375 42.25Z" fill="white"/>
<path d="M30.0625 42.25C31.4087 42.25 32.5 41.1587 32.5 39.8125C32.5 38.4663 31.4087 37.375 30.0625 37.375C28.7163 37.375 27.625 38.4663 27.625 39.8125C27.625 41.1587 28.7163 42.25 30.0625 42.25Z" fill="white"/>
<path d="M13 4.875V8.125M39 4.875V8.125" stroke="white" stroke-width="3" stroke-linecap="round" stroke-linejoin="round"/>
<path d="M47.125 16.25H4.875" stroke="white" stroke-width="3" stroke-linejoin="round"/>
</svg>
