<svg width="59" height="59" viewBox="0 0 59 59" fill="none" xmlns="http://www.w3.org/2000/svg">
<path d="M56.5846 56.5846H2.41797M51.168 56.5846V26.793M7.83464 56.5846V26.793" stroke="#04622D" stroke-width="4.33333" stroke-linecap="round"/>
<path d="M41.7624 2.41797H17.2357C13.9776 2.41797 12.3499 2.41797 11.0418 3.22776C9.73094 4.03484 9.0024 5.49193 7.54803 8.40609L3.74282 18.018C2.86532 20.2388 2.09615 22.8551 3.5749 24.7319C4.27153 25.6176 5.22704 26.264 6.30834 26.581C7.38964 26.8981 8.5429 26.87 9.6075 26.5008C10.6721 26.1315 11.595 25.4394 12.2478 24.5209C12.9005 23.6023 13.2505 22.5031 13.2491 21.3763C13.2491 22.8129 13.8198 24.1906 14.8356 25.2065C15.8514 26.2223 17.2291 26.793 18.6657 26.793C20.1023 26.793 21.4801 26.2223 22.4959 25.2065C23.5117 24.1906 24.0824 22.8129 24.0824 21.3763C24.0824 22.8129 24.6531 24.1906 25.6689 25.2065C26.6847 26.2223 28.0625 26.793 29.4991 26.793C30.9357 26.793 32.3134 26.2223 33.3292 25.2065C34.3451 24.1906 34.9157 22.8129 34.9157 21.3763C34.9157 22.8129 35.4864 24.1906 36.5022 25.2065C37.5181 26.2223 38.8958 26.793 40.3324 26.793C41.769 26.793 43.1467 26.2223 44.1626 25.2065C45.1784 24.1906 45.7491 22.8129 45.7491 21.3763C45.7489 22.5022 46.0996 23.6002 46.7524 24.5176C47.4052 25.4349 48.3277 26.1261 49.3915 26.4949C50.4553 26.8637 51.6076 26.8918 52.6881 26.5754C53.7687 26.2589 54.7237 25.6136 55.4205 24.7292C56.8993 22.8523 56.1301 20.2361 55.2526 18.0153L51.4501 8.40609C49.9957 5.49193 49.2672 4.03484 47.9564 3.22776C46.6482 2.41797 45.0205 2.41797 41.7624 2.41797Z" stroke="#04622D" stroke-width="4.33333" stroke-linejoin="round"/>
<path d="M22.7305 55.2298V47.1048C22.7305 44.5725 22.7305 43.3077 23.2748 42.3652C23.6314 41.7477 24.1442 41.2349 24.7617 40.8784C25.7042 40.334 26.969 40.334 29.5013 40.334C32.0336 40.334 33.2984 40.334 34.2409 40.8784C34.8584 41.2349 35.3712 41.7477 35.7278 42.3652C36.2721 43.3077 36.2721 44.5725 36.2721 47.1048V55.2298" stroke="#04622D" stroke-width="3.46667" stroke-linecap="round"/>
</svg>
