<svg width="48" height="52" viewBox="0 0 48 52" fill="none" xmlns="http://www.w3.org/2000/svg">
<path d="M25.4795 15.7782L25.4795 15.7781L25.4775 15.7801C16.3689 24.5042 12.7432 29.7714 11.4036 32.0985L11.4035 32.0984L11.4014 32.1025C11.1514 32.5877 11.2956 33.2002 11.7514 33.5122L11.751 33.5128L11.7621 33.5185L11.7621 33.5186L11.7621 33.5186L11.7621 33.5186L11.7621 33.5186L11.7621 33.5186L11.7622 33.5186L11.7622 33.5186L11.7622 33.5186L11.7622 33.5186L11.7622 33.5186L11.7622 33.5186L11.7622 33.5186L11.7623 33.5186L11.7623 33.5186L11.7623 33.5187L11.7623 33.5187L11.7623 33.5187L11.7623 33.5187L11.7624 33.5187L11.7624 33.5187L11.7624 33.5187L11.7624 33.5187L11.7625 33.5187L11.7625 33.5187L11.7625 33.5188L11.7625 33.5188L11.7625 33.5188L11.7626 33.5188L11.7626 33.5188L11.7626 33.5188L11.7626 33.5188L11.7626 33.5188L11.7626 33.5188L11.7626 33.5188L11.7627 33.5188L11.7627 33.5189L11.7627 33.5189L11.7627 33.5189L11.7627 33.5189L11.7627 33.5189L11.7628 33.5189L11.7628 33.5189L11.7628 33.5189L11.7628 33.5189L11.7628 33.5189L11.7628 33.5189L11.7629 33.5189L11.7629 33.519L11.7629 33.519L11.7629 33.519L11.7629 33.519L11.763 33.519L11.763 33.519L11.763 33.519L11.763 33.519L11.763 33.519L11.7631 33.5191L11.7631 33.5191L11.7631 33.5191L11.7631 33.5191L11.7632 33.5191L11.7632 33.5191L11.7632 33.5191L11.7632 33.5191L11.7633 33.5192L11.7633 33.5192L11.7633 33.5192L11.7633 33.5192L11.7634 33.5192L11.7634 33.5192L11.7634 33.5192L11.7634 33.5192L11.7635 33.5193L11.7635 33.5193L11.7635 33.5193L11.7635 33.5193L11.7636 33.5193L11.7636 33.5193L11.7636 33.5193L11.7637 33.5194L11.7637 33.5194L11.7637 33.5194L11.7638 33.5194L11.7638 33.5194L11.7638 33.5194L11.7639 33.5195L11.7639 33.5195L11.7639 33.5195L11.764 33.5195L11.764 33.5195L11.764 33.5195L11.7641 33.5196L11.7641 33.5196L11.7641 33.5196L11.7642 33.5196L11.7642 33.5196L11.7642 33.5197L11.7643 33.5197L11.7643 33.5197L11.7644 33.5197L11.7644 33.5197L11.7644 33.5198L11.7645 33.5198L11.7645 33.5198L11.7646 33.5198L11.7646 33.5198L11.7646 33.5199L11.7647 33.5199L11.7647 33.5199L11.7648 33.5199L11.7648 33.52L11.7649 33.52L11.7649 33.52L11.7649 33.52L11.765 33.52L11.765 33.5201L11.7651 33.5201L11.7651 33.5201L11.7652 33.5201L11.7652 33.5202L11.7653 33.5202L11.7653 33.5202L11.7654 33.5202L11.7654 33.5203L11.7655 33.5203L11.7655 33.5203L11.7656 33.5203L11.7656 33.5204L11.7657 33.5204L11.7657 33.5204L11.7658 33.5205L11.7658 33.5205L11.7659 33.5205L11.7659 33.5205L11.766 33.5206L11.7661 33.5206L11.7661 33.5206L11.7662 33.5207L11.7662 33.5207L11.7663 33.5207L11.7663 33.5207L11.7664 33.5208L11.7665 33.5208L11.7665 33.5208L11.7666 33.5209L11.7666 33.5209L11.7667 33.5209L11.7668 33.521L11.7668 33.521L11.7669 33.521L11.767 33.5211L11.767 33.5211L11.7671 33.5211L11.7671 33.5212L11.7672 33.5212L11.7673 33.5212L11.7673 33.5213L11.7674 33.5213L11.7675 33.5213L11.7676 33.5214L11.7676 33.5214L11.7677 33.5214L11.7678 33.5215L11.7678 33.5215L11.7679 33.5215L11.768 33.5216L11.7681 33.5216L11.7681 33.5217L11.7682 33.5217L11.7683 33.5217L11.7683 33.5218L11.7684 33.5218L11.7685 33.5219L11.7686 33.5219L11.7687 33.5219L11.7687 33.522L11.7688 33.522L11.7689 33.5221L11.769 33.5221L11.7691 33.5221L11.7691 33.5222L11.7692 33.5222L11.7693 33.5223L11.7694 33.5223L11.7695 33.5224L11.7696 33.5224L11.7696 33.5224L11.7697 33.5225L11.7698 33.5225L11.7699 33.5226L11.77 33.5226L11.7701 33.5227L11.7702 33.5227L11.7703 33.5228L11.7704 33.5228L11.7704 33.5229L11.7705 33.5229L11.7706 33.523L11.7707 33.523L11.7708 33.523L11.7709 33.5231L11.771 33.5231L11.7711 33.5232L11.7712 33.5232L11.7713 33.5233L11.7714 33.5233L11.7715 33.5234L11.7716 33.5235L11.7717 33.5235L11.7718 33.5236L11.7719 33.5236L11.772 33.5237L11.7721 33.5237L11.7722 33.5238L11.7723 33.5238L11.7724 33.5239L11.7725 33.5239L11.7726 33.524L11.7727 33.524L11.7728 33.5241L11.773 33.5242L11.7731 33.5242L11.7732 33.5243L11.7733 33.5243L11.7734 33.5244L11.7735 33.5244L11.7736 33.5245L11.7737 33.5246L11.7739 33.5246L11.774 33.5247L11.7741 33.5247L11.7742 33.5248L11.7743 33.5249L11.7744 33.5249L11.7746 33.525L11.7747 33.525L11.7748 33.5251L11.7749 33.5252L11.7751 33.5252L11.7752 33.5253L11.7753 33.5254L11.7754 33.5254L11.7756 33.5255L11.7757 33.5256L11.7758 33.5256L11.7759 33.5257L11.7761 33.5258L11.7762 33.5258L11.7763 33.5259L11.7765 33.526L11.7766 33.526L11.7767 33.5261L11.7769 33.5262L11.777 33.5262L11.7771 33.5263L11.7773 33.5264L11.7774 33.5264L11.7775 33.5265L11.7777 33.5266L11.7778 33.5267L11.778 33.5267L11.7781 33.5268L11.7782 33.5269L11.7784 33.5269L11.7785 33.527L11.7787 33.5271L11.7788 33.5272L11.779 33.5272L11.7791 33.5273L11.7793 33.5274L11.7794 33.5275L11.7796 33.5276L11.7797 33.5276L11.7799 33.5277L11.78 33.5278L11.7802 33.5279L11.7803 33.5279L11.7805 33.528L11.7806 33.5281L11.7808 33.5282L11.7809 33.5283L11.7811 33.5284L11.7813 33.5284L11.7814 33.5285L11.7816 33.5286L11.7817 33.5287L11.7819 33.5288L11.7821 33.5289L11.7822 33.5289L11.7824 33.529L11.7826 33.5291L11.7827 33.5292L11.7829 33.5293L11.7831 33.5294L11.7832 33.5295L11.7834 33.5295L11.7836 33.5296L11.7838 33.5297L11.7839 33.5298L11.7841 33.5299L11.7843 33.53L11.7845 33.5301L11.7846 33.5302L11.7848 33.5303L11.785 33.5304L11.7852 33.5305L11.7854 33.5305L11.7855 33.5306L11.7857 33.5307L11.7859 33.5308L11.7861 33.5309L11.7863 33.531L11.7865 33.5311L11.7867 33.5312L11.7868 33.5313L11.787 33.5314L11.7872 33.5315L11.7874 33.5316L11.7876 33.5317L11.7878 33.5318L11.788 33.5319L11.7882 33.532L11.7884 33.5321L11.7886 33.5322L11.7888 33.5323L11.789 33.5324L11.7892 33.5325L11.7894 33.5326L11.7896 33.5327L11.7898 33.5328L11.79 33.5329L11.7902 33.533L11.7904 33.5332L11.7906 33.5333L11.7908 33.5334L11.791 33.5335L11.7913 33.5336L11.7915 33.5337L11.7917 33.5338L11.7919 33.5339L11.7921 33.534L11.7923 33.5341L11.7925 33.5342L11.7928 33.5344L11.793 33.5345L11.7932 33.5346L11.7934 33.5347L11.7936 33.5348L11.7939 33.5349L11.7941 33.535L11.7943 33.5352L11.7945 33.5353L11.7948 33.5354L11.795 33.5355L11.7952 33.5356L11.7955 33.5357L11.7957 33.5359L11.7959 33.536L11.7962 33.5361L11.7964 33.5362L11.7966 33.5364L11.7969 33.5365L11.7971 33.5366L11.7973 33.5367L11.7976 33.5368L11.7978 33.537L11.7981 33.5371L11.7983 33.5372L11.7986 33.5373L11.7988 33.5375L11.7991 33.5376L11.7993 33.5377L11.7995 33.5379L11.7998 33.538L11.8001 33.5381L11.8003 33.5382L11.8006 33.5384L11.8008 33.5385L11.8011 33.5386L11.8013 33.5388L11.8016 33.5389L11.8018 33.539L11.8021 33.5392L11.8024 33.5393L11.8026 33.5394L11.8029 33.5396L11.8032 33.5397L11.8034 33.5399L11.8037 33.54L11.804 33.5401L11.8042 33.5403L11.8045 33.5404L11.8048 33.5405L11.805 33.5407L11.8053 33.5408L11.8056 33.541L11.8059 33.5411L11.8061 33.5413L11.8064 33.5414L11.8067 33.5415L11.807 33.5417L11.8073 33.5418L11.8076 33.542L11.8078 33.5421L11.8081 33.5423L11.8084 33.5424L11.8087 33.5426L11.809 33.5427L11.8093 33.5429L11.8096 33.543L11.8099 33.5432L11.8102 33.5433L11.8105 33.5435L11.8108 33.5436L11.8111 33.5438L11.8114 33.5439L11.8117 33.5441L11.812 33.5442L11.8123 33.5444L11.8126 33.5446L11.8129 33.5447L11.8132 33.5449L11.8135 33.545L11.8138 33.5452L11.8141 33.5454L11.8144 33.5455L11.8147 33.5457L11.815 33.5458L11.8154 33.546L11.8157 33.5462L11.816 33.5463L11.8163 33.5465L11.8166 33.5467L11.8169 33.5468L11.8173 33.547C12.299 33.7953 12.9194 33.6567 13.177 33.16C14.4767 30.9086 17.9754 25.8772 26.8486 17.3279L26.849 17.3274C27.0761 17.1058 27.1958 16.8407 27.2068 16.5732C27.2179 16.3057 27.1199 16.0435 26.9254 15.8288C26.5294 15.3917 25.9104 15.3877 25.4795 15.7782Z" fill="#04622D" stroke="#04622D" stroke-width="0.2"/>
<path d="M26.4276 10.21L26.4393 10.2091L33.965 9.63764L39.0234 4.947L39.0323 4.93877L39.0429 4.9329L39.0482 4.92996C39.2418 4.82242 39.4575 4.70262 39.7617 4.70634L39.7688 4.70643L39.7759 4.70752C39.9936 4.74134 40.2313 4.86632 40.4336 5.04409L40.4423 5.05174L40.4418 5.05219L46.9355 12.2406L26.4276 10.21ZM26.4276 10.21L26.4165 10.2136L26.4276 10.21ZM41.9729 18.2057L41.9706 18.2209L41.9706 18.2209L41.9705 18.2211L41.9704 18.2212L41.9704 18.2213L41.9703 18.2214L41.9702 18.2216L41.9702 18.2217L41.9701 18.2218L41.9701 18.222L41.97 18.2221L41.9699 18.2222L41.9699 18.2223L41.9698 18.2225L41.9697 18.2226L41.9697 18.2227L41.9696 18.2228L41.9695 18.2229L41.9695 18.2231L41.9694 18.2232L41.9694 18.2233L41.9693 18.2234L41.9692 18.2235L41.9692 18.2236L41.9691 18.2238L41.9691 18.2239L41.969 18.224L41.9689 18.2241L41.9689 18.2242L41.9688 18.2243L41.9688 18.2244L41.9687 18.2245L41.9687 18.2247L41.9686 18.2248L41.9685 18.2249L41.9685 18.225L41.9684 18.2251L41.9684 18.2252L41.9683 18.2253L41.9683 18.2254L41.9682 18.2255L41.9682 18.2256L41.9681 18.2257L41.9681 18.2258L41.968 18.2259L41.968 18.226L41.9679 18.2261L41.9679 18.2262L41.9678 18.2263L41.9678 18.2264L41.9677 18.2265L41.9677 18.2266L41.9676 18.2267L41.9676 18.2268L41.9675 18.2269L41.9675 18.227L41.9674 18.2271L41.9674 18.2272L41.9673 18.2272L41.9673 18.2273L41.9672 18.2274L41.9672 18.2275L41.9671 18.2276L41.9671 18.2277L41.967 18.2278L41.967 18.2279L41.967 18.228L41.9669 18.228L41.9669 18.2281L41.9668 18.2282L41.9668 18.2283L41.9667 18.2284L41.9667 18.2285L41.9667 18.2285L41.9666 18.2286L41.9666 18.2287L41.9665 18.2288L41.9665 18.2289L41.9665 18.2289L41.9664 18.229L41.9664 18.2291L41.9663 18.2292L41.9663 18.2292L41.9663 18.2293L41.9662 18.2294L41.9662 18.2295L41.9661 18.2295L41.9661 18.2296L41.9661 18.2297L41.966 18.2297L41.966 18.2298L41.966 18.2299L41.9659 18.23L41.9659 18.23L41.9659 18.2301L41.9658 18.2302L41.9658 18.2302L41.9658 18.2303L41.9657 18.2304L41.9657 18.2304L41.9657 18.2305L41.9656 18.2306L41.9656 18.2306L41.9656 18.2307L41.9655 18.2307L41.9655 18.2308L41.9655 18.2309L41.9654 18.2309L41.9654 18.231L41.9654 18.2311L41.9653 18.2311L41.9653 18.2312L41.9653 18.2312L41.9652 18.2313L41.9652 18.2313L41.9652 18.2314L41.9652 18.2315L41.9651 18.2315L41.9651 18.2316L41.9651 18.2316L41.965 18.2317L41.965 18.2317L41.965 18.2318L41.965 18.2318L41.9649 18.2319L41.9649 18.2319L41.9649 18.232L41.9649 18.232L41.9648 18.2321L41.9648 18.2321L41.9648 18.2322L41.9648 18.2322L41.9647 18.2323L41.9647 18.2323L41.9647 18.2324L41.9647 18.2324L41.9646 18.2325L41.9646 18.2325L41.9646 18.2326L41.9646 18.2326L41.9645 18.2327L41.9645 18.2327L41.9645 18.2327L41.9645 18.2328L41.9644 18.2328L41.9644 18.2329L41.9644 18.2329L41.9644 18.233L41.9644 18.233L41.9643 18.233L41.9643 18.2331L41.9643 18.2331L41.9643 18.2332L41.9643 18.2332L41.9642 18.2332L41.9642 18.2333L41.9642 18.2333L41.9642 18.2333L41.9642 18.2334L41.9641 18.2334L41.9641 18.2334L41.9641 18.2335L41.9641 18.2335L41.9641 18.2335L41.9641 18.2336L41.964 18.2336L41.964 18.2336L41.964 18.2337L41.964 18.2337L41.964 18.2337L41.964 18.2338L41.9639 18.2338L41.9639 18.2338L41.9639 18.2339L41.9639 18.2339L41.9639 18.2339L41.9639 18.234L41.9639 18.234L41.9638 18.234L41.9638 18.234L41.9638 18.2341L41.9638 18.2341L41.9638 18.2341L41.9638 18.2342L41.9638 18.2342L41.9637 18.2342L41.9637 18.2342L41.9637 18.2343L41.9637 18.2343L41.9637 18.2343L41.9637 18.2343L41.9637 18.2343L41.9637 18.2344L41.9636 18.2344L41.9636 18.2344L41.9636 18.2344L41.9636 18.2345L41.9636 18.2345L41.9636 18.2345L41.9636 18.2345L41.9636 18.2345L41.9636 18.2346L41.9635 18.2346L41.9635 18.2346L41.9635 18.2346L41.9635 18.2346L41.9635 18.2347L41.9635 18.2347L41.9635 18.2347L41.9635 18.2347L41.9635 18.2347L41.9635 18.2348L41.9634 18.2348L41.9634 18.2348L41.9634 18.2348L41.9634 18.2348L41.9634 18.2348L41.9634 18.2349L41.9634 18.2349L41.9634 18.2349L41.9634 18.2349L41.9634 18.2349L41.9634 18.2349L41.9634 18.2349L41.9634 18.235L41.9633 18.235L41.9633 18.235L41.9633 18.235L41.9633 18.235L41.9633 18.235L41.9633 18.2351L41.9633 18.2351L41.9633 18.2351L41.9633 18.2351L41.9633 18.2351L41.9632 18.2352L41.9632 18.2352L41.9632 18.2352L41.9632 18.2352L41.9632 18.2352L41.9632 18.2352L41.9632 18.2353L41.9632 18.2353L41.9632 18.2353L41.9632 18.2353L41.9632 18.2353L41.9632 18.2353L41.9631 18.2353L41.9631 18.2354L41.9631 18.2354L41.9631 18.2354L41.9631 18.2354L41.9631 18.2354L41.9631 18.2354L41.8742 18.1896L41.8817 18.1751L41.9649 18.2021M41.9729 18.2057L41.9834 18.196L41.9835 18.1959L41.9836 18.1957L41.9837 18.1954L41.9839 18.1951L41.984 18.1949L41.9841 18.1946L41.9843 18.1944L41.9844 18.1941L41.9846 18.1938L41.9847 18.1935L41.9848 18.1933L41.985 18.193L41.9851 18.1927L41.9852 18.1925L41.9854 18.1922L41.9855 18.1919L41.9857 18.1916L41.9858 18.1914L41.986 18.1911L41.9861 18.1908L41.9863 18.1905L41.9864 18.1902L41.9865 18.19L41.9867 18.1897L41.9868 18.1894L41.987 18.1891L41.9871 18.1888L41.9873 18.1885L41.9874 18.1882L41.9876 18.1879L41.9877 18.1876L41.9879 18.1873L41.988 18.1871L41.9882 18.1868L41.9883 18.1865L41.9885 18.1862L41.9887 18.1859L41.9888 18.1856L41.989 18.1853L41.9891 18.1849L41.9893 18.1846L41.9894 18.1843L41.9896 18.184L41.9898 18.1837L41.9899 18.1834L41.9901 18.1831L41.9902 18.1828L41.9904 18.1825L41.9906 18.1822L41.9907 18.1818L41.9909 18.1815L41.9911 18.1812L41.9912 18.1809L41.9914 18.1806L41.9916 18.1802L41.9027 18.1344L41.9649 18.2021M41.9729 18.2057L41.9731 18.2047L41.9649 18.2021M41.9729 18.2057L41.9704 18.208L41.9664 18.2037L41.9649 18.2021M7.10946 34.0432L7.10999 34.0428C6.9415 33.8124 6.78284 33.5003 6.88157 33.1509C6.88217 33.1483 6.88286 33.1453 6.88365 33.1418C6.97624 32.7377 8.42266 26.4248 25.6441 10.4309C25.6741 10.385 25.7193 10.3573 25.7562 10.3394C25.7975 10.3193 25.8451 10.3041 25.8845 10.2915L25.8879 10.2905L26.0133 10.2503L26.1081 10.22C26.119 10.2084 26.1316 10.1984 26.1458 10.1906C26.1734 10.1752 26.201 10.1711 26.223 10.1714C26.2445 10.1717 26.2625 10.1761 26.2744 10.1799C26.2806 10.1819 26.2858 10.184 26.2898 10.1857L26.2951 10.188L26.2971 10.189L26.298 10.1894L26.2983 10.1896L26.2985 10.1897L26.2986 10.1898L26.2529 10.2787L26.2987 10.1898L26.3539 10.2183C26.3625 10.2227 26.368 10.2255 26.3717 10.2273L7.10946 34.0432ZM7.10946 34.0432L7.1172 34.0516M7.10946 34.0432L7.1172 34.0516M7.1172 34.0516L15.5823 43.2318L7.1172 34.0516ZM46.8177 13.6124L46.8848 13.6865C46.8849 13.6864 46.8849 13.6864 46.885 13.6863L46.8854 13.686L46.8177 13.6124ZM46.8614 12.3077L46.9356 12.2407L46.8614 12.3077ZM40.5512 26.5322L40.5513 26.5321L40.5514 26.5318L40.5516 26.5315L40.5517 26.5313L40.5518 26.531L40.552 26.5307L40.5521 26.5304L40.5523 26.5301L40.5524 26.5298L40.5526 26.5295L40.5527 26.5292L40.5529 26.529L40.553 26.5287L40.5532 26.5284L40.5533 26.5281L40.5535 26.5278L40.5537 26.5275L40.5538 26.5272L40.554 26.5269L40.5541 26.5266L40.5543 26.5263L40.5544 26.526L40.5546 26.5256L40.5548 26.5253L40.5549 26.525L40.5551 26.5247L40.5552 26.5244L40.5554 26.5241L40.5556 26.5238L40.5557 26.5235L40.5559 26.5231L40.556 26.5228L40.5562 26.5225L40.5564 26.5222L40.5565 26.5219L40.5567 26.5215L40.4678 26.4757L40.5429 26.5417C40.5457 26.5386 40.5485 26.5354 40.5512 26.5322ZM16.7115 41.3453L9.09467 33.0673C9.73953 31.4251 12.8531 25.2694 26.3309 12.6985L38.391 25.7519C24.7442 38.2212 18.3476 40.8525 16.7115 41.3453ZM39.1264 23.5723L28.557 12.1392L33.8039 11.7797L39.8783 18.366L39.1264 23.5723ZM35.8309 10.6769L39.5893 7.16765L44.7433 12.7504L40.9849 16.2597L35.8309 10.6769Z" fill="#04622D" stroke="#04622D" stroke-width="0.2"/>
<path d="M19.5623 8.75928C20.0529 9.01213 20.6987 8.80561 20.9515 8.31497C22.9458 4.44536 27.7364 2.91322 31.606 4.90746C32.0967 5.16031 32.7424 4.95379 32.9953 4.46315C33.2482 3.97251 33.0416 3.32674 32.551 3.07389C27.6449 0.545491 21.6464 2.46394 19.118 7.37002C18.8347 7.9197 19.0756 8.50846 19.5623 8.75928Z" fill="#04622D" stroke="#04622D" stroke-width="0.2"/>
<path d="M26.8566 45.5159C27.1095 45.0252 26.903 44.3795 26.4123 44.1266C25.9217 43.8738 25.2759 44.0803 25.0231 44.5709C23.0288 48.4405 18.2382 49.9727 14.3685 47.9784C13.8779 47.7256 13.2321 47.9321 12.9793 48.4228C12.7264 48.9134 12.933 49.5592 13.4236 49.812C18.2741 52.3118 24.328 50.4223 26.8566 45.5159Z" fill="#04622D" stroke="#04622D" stroke-width="0.2"/>
</svg>
